<svg width="167" height="26" viewBox="0 8 167 26" fill="none" xmlns="http://www.w3.org/2000/svg">
<g id="LOGO">
<g id="2024&#231;&#137;&#136;-logo">
<g id="Logo Combine">
<g id="LOGO+&#229;&#144;&#141;&#231;&#167;&#176;">
<g id="Logo">
<path id="Fill 15" fill-rule="evenodd" clip-rule="evenodd" d="M10.0043 11.4041C10.8103 11.4041 11.4639 10.751 11.4653 9.94487V8H7.60352V11.4048L10.0043 11.4041Z" fill="#E1251B"/>
<path id="Fill 17" fill-rule="evenodd" clip-rule="evenodd" d="M10.0045 12.177L7.60369 12.1763V14.7502V17.6939C7.60369 18.1598 7.51859 18.6243 7.32877 19.0497C7.05921 19.6537 6.53858 20.3174 5.55194 20.3174C5.55194 20.3174 4.1038 20.4383 3.01709 18.8684L0 21.1625C0 21.1625 1.93095 23.7589 5.73315 23.7589C5.73315 23.7589 11.4655 23.9398 11.4655 17.9021V15.483V13.6362C11.464 12.8301 10.8105 12.177 10.0045 12.177Z" fill="#E1251B"/>
<g id="&#231;&#188;&#150;&#231;&#187;&#132;">
<mask id="mask0_1868_3872" style="mask-type:luminance" maskUnits="userSpaceOnUse" x="12" y="8" width="24" height="16">
<path id="Clip 20" fill-rule="evenodd" clip-rule="evenodd" d="M12.2363 8H35.1349V23.2155H12.2363V8Z" fill="white"/>
</mask>
<g mask="url(#mask0_1868_3872)">
<path id="Fill 19" fill-rule="evenodd" clip-rule="evenodd" d="M28.9197 19.7971V15.1034V12.1136V8H25.0572V11.4431C25.0518 11.4345 25.0465 11.4259 25.041 11.4174V11.3983C25.0383 11.3948 25.0359 11.3911 25.0333 11.3875H25.0338C24.9974 11.3329 24.9597 11.2789 24.9216 11.2251C24.9183 11.2207 24.9154 11.2162 24.9123 11.2115C24.8696 11.1515 24.826 11.0922 24.7817 11.0333C24.781 11.0325 24.7803 11.0313 24.7803 11.0313C24.6771 10.8949 24.569 10.7644 24.4582 10.6362C24.4395 10.6145 24.4199 10.5939 24.4011 10.5723C24.3357 10.4985 24.2703 10.4248 24.2024 10.3538C24.1991 10.3506 24.1957 10.3473 24.1925 10.3439C22.8427 8.93763 20.9605 8.04702 18.8724 8.00339V8.00014H18.7574H16.1486H16.0988H12.2363V9.92369V9.94515C12.2379 10.7513 12.8913 11.4043 13.6973 11.4043L16.1002 11.4045V11.4034H18.4217C18.6774 11.4034 18.9337 11.4266 19.1825 11.4863C20.9356 11.9081 22.2415 13.4093 22.4134 15.2107C22.4149 15.2293 22.4171 15.2478 22.4186 15.2665C22.422 15.3083 22.4244 15.3502 22.4268 15.3921C22.4296 15.4495 22.4317 15.5072 22.4322 15.5653C22.4323 15.5792 22.433 15.5935 22.433 15.6079C22.433 15.6222 22.4323 15.6363 22.4322 15.6505C22.4317 15.7084 22.4296 15.7661 22.4268 15.8234C22.4244 15.8653 22.422 15.9075 22.4186 15.9492C22.4171 15.968 22.4149 15.9863 22.4134 16.005C22.2415 17.8064 20.9356 19.3074 19.1825 19.7292C18.9337 19.7892 18.6774 19.8123 18.4217 19.8123H16.1002V19.785H16.0988V19.0999V12.1768L13.6973 12.177C12.8913 12.177 12.2379 12.83 12.2363 13.6361V17.6376V19.834V23.2154H16.1486H18.8724V23.2116C20.8334 23.1703 22.6128 22.3815 23.9404 21.1208V21.1317C24.2443 20.8462 24.5226 20.5302 24.7751 20.1904C24.7799 20.1842 24.7844 20.178 24.789 20.1716C24.8476 20.0926 24.9049 20.0125 24.9604 19.9306C24.9866 19.8926 25.0151 19.8559 25.041 19.8175V19.8089C25.0465 19.8004 25.0518 19.7918 25.0572 19.7832V19.8173V23.2155H35.1349V19.7971H28.9197Z" fill="#E1251B"/>
</g>
</g>
<path id="Fill 21" fill-rule="evenodd" clip-rule="evenodd" d="M7.1103 31.6862L8.1095 33.8196H7.33343L5.89686 31.6862H7.1103ZM1.60578 30.4276H6.50372V29.5706H1.60578V30.4276ZM4.61229 31.1773V32.3557C4.61229 32.9627 4.43983 33.3971 4.0949 33.6589C3.7974 33.8851 3.34846 33.9982 2.74767 33.9982V33.2573C3.0154 33.2454 3.20268 33.1858 3.30979 33.0788C3.4227 32.9658 3.47929 32.7784 3.47929 32.5164V31.1773H0.508352V28.8297H7.59198V31.1773H4.61229ZM0.981281 31.6862H2.19458L0.758295 33.8196H0L0.981281 31.6862ZM4.61229 27.589H8.1095V28.3298H0V27.589H3.47929V27.1069H4.61229V27.589Z" fill="#E1251B"/>
<path id="Fill 23" fill-rule="evenodd" clip-rule="evenodd" d="M16.1631 31.5881L17.198 33.8196H16.4218L14.9408 31.5881H16.1631ZM10.1144 31.5881H11.3276L9.85571 33.8196H9.08838L10.1144 31.5881ZM13.79 30.856V32.3646C13.79 33.4536 13.1655 33.9982 11.9164 33.9982V33.2751C12.19 33.2513 12.3804 33.1829 12.4875 33.0698C12.6004 32.9509 12.657 32.7544 12.657 32.4806V30.856H9.40959L10.391 28.3299H9.08838V27.58H10.6765L10.8638 27.1069H12.0057L11.8273 27.58H17.198V28.3299H11.5329L10.837 30.1241H12.657V29.0173H13.79V30.1241H16.877V30.856H13.79Z" fill="#E1251B"/>
<path id="Fill 25" fill-rule="evenodd" clip-rule="evenodd" d="M24.5536 28.544V29.1689C24.5536 29.8772 24.4554 30.6388 24.2591 31.4542C24.0391 32.3945 23.7475 33.1977 23.3849 33.8642H22.5908C22.9834 32.9716 23.2569 32.1296 23.4116 31.338C23.5543 30.6061 23.6257 29.9157 23.6257 29.2671V28.544H23.1172V29.1689C23.1172 29.8772 23.0132 30.6388 22.805 31.4542C22.567 32.3408 22.2518 33.1443 21.8593 33.8642H21.0564C21.4311 33.1382 21.7254 32.3021 21.9396 31.3559C22.106 30.5644 22.1896 29.8354 22.1896 29.1689V28.544H22.0913C21.9307 28.9487 21.7879 29.288 21.663 29.5617H20.9049C21.1367 28.8475 21.3419 28.0293 21.5203 27.1069H22.6089C22.5016 27.4282 22.4213 27.6663 22.368 27.821H26.0971V32.2485C26.0971 32.8853 25.9364 33.3347 25.6152 33.5963C25.3476 33.8165 24.8926 33.9503 24.2504 33.9981V33.2749C24.5536 33.2393 24.7646 33.15 24.8837 33.0073C25.0027 32.8643 25.0623 32.6384 25.0623 32.329V28.544H24.5536ZM20.5211 31.2933V33.9981H19.513V31.4987L18.1748 31.7843V31.0791L19.513 30.8114V28.91H19.0491C18.9598 29.3205 18.8707 29.7283 18.7814 30.1329H18.1123C18.2313 29.4545 18.3294 28.5888 18.4067 27.5354H19.29C19.2779 27.6545 19.2453 27.8806 19.1918 28.2137H19.513V27.1069H20.5211V28.2137H21.0298V28.91H20.5211V30.5972L21.44 30.4097V31.106L20.5211 31.2933Z" fill="#E1251B"/>
<path id="Fill 27" fill-rule="evenodd" clip-rule="evenodd" d="M35.1349 33.2324V33.9108H34.4479C33.7401 33.9108 33.3863 33.5833 33.3863 32.9288V30.7597H34.4033V32.8038C34.4033 32.9647 34.4331 33.0747 34.4925 33.1341C34.5578 33.1998 34.6679 33.2324 34.8226 33.2324H35.1349ZM31.5663 33.866H32.521V30.7597H31.5663V33.866ZM32.6012 27.6088H34.9029V28.3318H31.3165L30.7277 29.635H33.4488L33.0562 28.8048H34.1357L34.8226 30.3313H29.3715L30.219 28.3318H29.1843V27.6088H31.4771V27.1089H32.6012V27.6088ZM30.7634 30.7597V30.9649C30.7634 31.4352 30.6742 31.9559 30.4957 32.5272C30.3293 33.051 30.1152 33.5418 29.8534 34H28.997C29.4964 32.9587 29.7462 31.944 29.7462 30.9561V30.7597H30.7634ZM28.3458 27.1089L28.9702 28.5728H28.1136L27.2216 27.1089H28.3458ZM28.2028 28.9209L28.8542 30.358H27.9978L27.0789 28.9209H28.2028ZM28.0868 30.8847H28.8988C28.7084 31.9083 28.4586 32.9021 28.1494 33.866H27.0254C27.4357 32.9676 27.7895 31.9738 28.0868 30.8847Z" fill="#E1251B"/>
</g>
<path id="XXX&#229;&#183;&#165;&#228;&#189;&#156;&#229;&#143;&#176;" d="M47.2573 21.448H57.0313V19.738H47.2573V21.448ZM45.9973 23.95H48.4273L45.5653 28.216H44.0353L45.9973 23.95ZM58.2553 23.95L60.2353 28.216H58.6873L55.8253 23.95H58.2553ZM53.2513 22.942V25.3C53.2513 26.5 52.9033 27.364 52.2073 27.892C51.6073 28.348 50.7133 28.576 49.5253 28.576V27.1C50.0653 27.076 50.4433 26.956 50.6593 26.74C50.8873 26.512 51.0013 26.134 51.0013 25.606V22.942H45.0613V18.262H59.2093V22.942H53.2513ZM53.2513 15.778H60.2353V17.254H44.0353V15.778H51.0013V14.806H53.2513V15.778ZM64.0873 23.77H66.5173L63.5833 28.216H62.0353L64.0873 23.77ZM76.1833 23.77L78.2353 28.216H76.6873L73.7353 23.77H76.1833ZM71.4313 22.294V25.318C71.4313 27.49 70.1833 28.576 67.6873 28.576V27.136C68.2393 27.088 68.6233 26.95 68.8393 26.722C69.0673 26.482 69.1813 26.092 69.1813 25.552V22.294H62.6833L64.6453 17.254H62.0353V15.76H65.2213L65.5993 14.806H67.8673L67.5073 15.76H78.2353V17.254H66.9313L65.5453 20.836H69.1813V18.622H71.4313V20.836H77.6053V22.294H71.4313ZM93.9313 25.822C94.5793 26.362 95.3473 26.818 96.2353 27.19V28.576C94.9153 28.192 93.7873 27.64 92.8513 26.92C92.0113 27.628 90.9853 28.18 89.7733 28.576V27.19C90.5173 26.818 91.1653 26.374 91.7173 25.858C90.8653 24.91 90.1393 23.692 89.5393 22.204H91.5193C91.9033 23.176 92.3233 23.968 92.7793 24.58C93.3793 23.644 93.7333 22.654 93.8413 21.61H89.2873V28.576H87.2713V15.184H95.6773V16.714C95.6773 17.83 95.3893 18.604 94.8133 19.036C94.3213 19.408 93.4753 19.618 92.2753 19.666V18.316C92.8993 18.256 93.3013 18.142 93.4813 17.974C93.6733 17.806 93.7693 17.458 93.7693 16.93V16.534H89.2873V20.26H95.8393V21.61C95.5753 23.134 94.9933 24.472 94.0933 25.624C94.0453 25.696 93.9913 25.762 93.9313 25.822ZM84.4093 23.554H82.5013C82.4293 25.366 81.9973 27.034 81.2053 28.558H79.9093C80.4373 26.974 80.7013 25.246 80.7013 23.374V15.184H86.2093V25.57C86.2093 26.614 85.9693 27.352 85.4893 27.784C85.0693 28.168 84.3253 28.42 83.2573 28.54V27.172C83.7013 27.088 84.0013 26.956 84.1573 26.776C84.3253 26.584 84.4093 26.272 84.4093 25.84V23.554ZM84.4093 22.312V20.026H82.5013V22.312H84.4093ZM84.4093 18.766V16.498H82.5013V18.766H84.4093ZM108.565 19.72C109.693 19.936 111.583 20.164 114.235 20.404V21.916C111.835 21.64 110.383 21.466 109.879 21.394C108.415 21.178 107.155 20.908 106.099 20.584C104.047 21.172 101.359 21.616 98.0353 21.916V20.404C100.267 20.272 102.187 20.032 103.795 19.684C102.811 19.192 101.911 18.628 101.095 17.992C100.783 18.256 100.405 18.55 99.9613 18.874H98.2153C99.6673 17.566 100.723 16.21 101.383 14.806H103.831C103.567 15.214 103.369 15.514 103.237 15.706H112.651V17.146C111.571 18.154 110.209 19.012 108.565 19.72ZM106.099 19.072C107.623 18.556 108.961 17.914 110.113 17.146H102.013C101.797 17.362 101.629 17.524 101.509 17.632H103.183C104.059 18.22 105.031 18.7 106.099 19.072ZM105.235 22.564H112.813V25.354C112.813 26.65 112.495 27.514 111.859 27.946C111.235 28.378 110.305 28.588 109.069 28.576V27.28C109.657 27.22 110.059 27.082 110.275 26.866C110.527 26.626 110.653 26.224 110.653 25.66V24.004H104.587C103.567 25.948 102.289 27.472 100.753 28.576H98.6293C100.237 27.232 101.455 25.708 102.283 24.004H98.9533V22.564H102.895C103.075 22 103.189 21.616 103.237 21.412H105.595C105.523 21.724 105.403 22.108 105.235 22.564ZM125.251 26.434H132.235V27.946H116.035V26.434H122.983V17.056H116.827V15.544H131.407V17.056H125.251V26.434ZM143.521 25.102V28.576H141.415V17.578C141.019 18.514 140.575 19.432 140.083 20.332H138.607C139.387 18.328 139.921 16.486 140.209 14.806H142.459C142.375 15.094 142.225 15.538 142.009 16.138H150.235V17.578H143.521V19.9H149.605V21.34H143.521V23.662H149.785V25.102H143.521ZM136.609 18.586H138.049V28.576H135.961V19.306C135.805 19.486 135.643 19.66 135.475 19.828H133.801C135.121 18.22 136.117 16.546 136.789 14.806H139.147C138.331 16.294 137.485 17.554 136.609 18.586ZM155.473 26.83H164.869V23.302H155.473V26.83ZM167.065 21.844V28.288H153.277V21.844H167.065ZM165.319 16.3L167.785 20.314H152.503L156.121 14.806H158.641L155.743 18.838H164.617L162.853 16.3H165.319Z" fill="#23252B"/>
</g>
</g>
</g>
</g>
</svg>
