<svg preserveAspectRatio="none" overflow="visible" style="display: block;" width="20" height="20" viewBox="0 0 20 20" fill="none" xmlns="http://www.w3.org/2000/svg">
<g id="Lui-icon-help-manual">
<path id="Union" d="M14.9997 0.833333C16.8405 0.833333 18.3335 2.32554 18.3337 4.16634V15.8333C18.3337 16.3512 18.2154 16.8414 18.0046 17.2786C17.9343 17.4244 17.8542 17.5646 17.7643 17.6976C17.7045 17.7861 17.6398 17.8712 17.5719 17.9535C17.4699 18.0771 17.3594 18.1934 17.2409 18.3011C17.1227 18.4084 16.9967 18.5073 16.8639 18.597C16.598 18.7767 16.3049 18.9195 15.9919 19.0169C15.9397 19.0332 15.8869 19.0481 15.8337 19.0618C15.5674 19.1304 15.2883 19.1663 15.0007 19.1663H4.99967C3.15888 19.1662 1.66667 17.6742 1.66667 15.8333V4.16634C1.66684 2.32565 3.15898 0.833509 4.99967 0.833333H14.9997ZM4.12272 15.8392C3.86124 15.8828 3.68496 16.1305 3.72819 16.3919C3.82803 16.991 4.31981 17.4407 4.91471 17.4945L5.03483 17.4993H15.0007C15.0573 17.4993 15.1134 17.4971 15.1686 17.4915C15.9667 17.4111 16.5982 16.7674 16.6608 15.9642C16.6634 15.9312 16.6651 15.8981 16.6657 15.8646L16.6667 15.8333H4.20182C4.1755 15.8333 4.14869 15.8349 4.12272 15.8392ZM4.99967 2.50033C4.12119 2.50049 3.40118 3.18004 3.33757 4.04232L3.33366 4.16634V14.3509C3.49467 14.2799 3.66675 14.2259 3.84831 14.1956C3.96486 14.1762 4.08367 14.1663 4.20182 14.1663H16.6667V4.16634C16.6665 3.28794 15.9868 2.56798 15.1247 2.50423L14.9997 2.50033H10.8337V6.34408C10.8335 6.80397 10.4605 7.17673 10.0007 7.17708C9.91121 7.17708 9.82184 7.16236 9.73698 7.13411L8.59733 6.75423C8.42637 6.69725 8.24096 6.69731 8.06999 6.75423L6.93034 7.13411C6.49392 7.27954 6.02236 7.044 5.87663 6.60775C5.84833 6.52286 5.83369 6.43355 5.83366 6.34408V2.50033H4.99967ZM7.50065 5.18783L7.54264 5.17318C7.99871 5.02122 8.48846 5.00416 8.95182 5.1224L9.16667 5.18783V2.50033H7.50065V5.18783Z" fill="#525765"/>
</g>
</svg>
